<svg xmlns="http://www.w3.org/2000/svg" width="880" height="568.943" viewBox="0 0 880 568.943" xmlns:xlink="http://www.w3.org/1999/xlink" role="img" artist="Katerina Limpitsouni" source="https://undraw.co/"><g transform="translate(-643.5 -426.503)"><rect width="873" height="560" rx="8" transform="translate(647.5 431.453)" fill="#f2f2f2"/><path d="M23.757-1.5H853.243A25.285,25.285,0,0,1,878.5,23.757V542.186a25.285,25.285,0,0,1-25.257,25.257H23.757A25.285,25.285,0,0,1-1.5,542.186V23.757A25.285,25.285,0,0,1,23.757-1.5ZM853.243,559.467a17.3,17.3,0,0,0,17.281-17.281V23.757A17.3,17.3,0,0,0,853.243,6.476H23.757A17.3,17.3,0,0,0,6.476,23.757V542.186a17.3,17.3,0,0,0,17.281,17.281Z" transform="translate(645 428.003)" fill="#090814"/><path d="M21.14,0H845.593a21.2,21.2,0,0,1,21.14,21.269v31.9H0v-31.9A21.2,21.2,0,0,1,21.14,0Z" transform="translate(650.121 433.149)" fill="#6c63ff"/><rect width="21.269" height="501.148" transform="translate(860.177 486.322)" fill="#d6d6e3"/><rect width="9" height="93" rx="2" transform="translate(866.5 504.453)" fill="#6c63ff"/><rect width="170" height="23" rx="2" transform="translate(668.5 514.453)" fill="#d6d6e3"/><rect width="170" height="23" rx="2" transform="translate(668.5 557.453)" fill="#d6d6e3"/><rect width="170" height="19" rx="2" transform="translate(668.5 602.453)" fill="#d6d6e3"/><rect width="170" height="19" rx="2" transform="translate(668.5 644.453)" fill="#d6d6e3"/><rect width="170" height="20" rx="2" transform="translate(668.5 685.453)" fill="#d6d6e3"/><rect width="170" height="22" rx="2" transform="translate(668.5 727.453)" fill="#d6d6e3"/><rect width="170" height="22" rx="2" transform="translate(668.5 769.453)" fill="#d6d6e3"/><path d="M330.587,485.718H218.644a7.952,7.952,0,0,1-7.487-8.332V408.974a7.952,7.952,0,0,1,7.487-8.332h13.724a7.064,7.064,0,0,1,5.035,2.167l14.888,11.828a4.974,4.974,0,0,0,3.552,1.531h75.443a7.13,7.13,0,0,1,5.331,2.483,8.851,8.851,0,0,1,2.153,5.969l-.694,52.888a7.976,7.976,0,0,1-7.489,8.21Z" transform="translate(734.094 114.925)" fill="#6c63ff"/><path d="M330.587,485.718H218.644a7.952,7.952,0,0,1-7.487-8.332V408.974a7.952,7.952,0,0,1,7.487-8.332h13.724a7.064,7.064,0,0,1,5.035,2.167l14.888,11.828a4.974,4.974,0,0,0,3.552,1.531h75.443a7.13,7.13,0,0,1,5.331,2.483,8.851,8.851,0,0,1,2.153,5.969l-.694,52.888a7.976,7.976,0,0,1-7.489,8.21Z" transform="translate(1116.934 114.925)" fill="#6c63ff"/><path d="M330.587,485.718H218.644a7.952,7.952,0,0,1-7.487-8.332V408.974a7.952,7.952,0,0,1,7.487-8.332h13.724a7.064,7.064,0,0,1,5.035,2.167l14.888,11.828a4.974,4.974,0,0,0,3.552,1.531h75.443a7.13,7.13,0,0,1,5.331,2.483,8.851,8.851,0,0,1,2.153,5.969l-.694,52.888a7.976,7.976,0,0,1-7.489,8.21Z" transform="translate(925.514 114.925)" fill="#6c63ff"/><path d="M330.587,485.718H218.644a7.952,7.952,0,0,1-7.487-8.332V408.974a7.952,7.952,0,0,1,7.487-8.332h13.724a7.064,7.064,0,0,1,5.035,2.167l14.888,11.828a4.974,4.974,0,0,0,3.552,1.531h75.443a7.13,7.13,0,0,1,5.331,2.483,8.851,8.851,0,0,1,2.153,5.969l-.694,52.888a7.976,7.976,0,0,1-7.489,8.21Z" transform="translate(734.094 231.904)" fill="#6c63ff"/><path d="M330.587,485.718H218.644a7.952,7.952,0,0,1-7.487-8.332V408.974a7.952,7.952,0,0,1,7.487-8.332h13.724a7.064,7.064,0,0,1,5.035,2.167l14.888,11.828a4.974,4.974,0,0,0,3.552,1.531h75.443a7.13,7.13,0,0,1,5.331,2.483,8.851,8.851,0,0,1,2.153,5.969l-.694,52.888a7.976,7.976,0,0,1-7.489,8.21Z" transform="translate(1116.934 231.904)" fill="#6c63ff"/><path d="M330.587,485.718H218.644a7.952,7.952,0,0,1-7.487-8.332V408.974a7.952,7.952,0,0,1,7.487-8.332h13.724a7.064,7.064,0,0,1,5.035,2.167l14.888,11.828a4.974,4.974,0,0,0,3.552,1.531h75.443a7.13,7.13,0,0,1,5.331,2.483,8.851,8.851,0,0,1,2.153,5.969l-.694,52.888a7.976,7.976,0,0,1-7.489,8.21Z" transform="translate(925.514 231.904)" fill="#6c63ff"/><path d="M330.587,485.718H218.644a7.952,7.952,0,0,1-7.487-8.332V408.974a7.952,7.952,0,0,1,7.487-8.332h13.724a7.064,7.064,0,0,1,5.035,2.167l14.888,11.828a4.974,4.974,0,0,0,3.552,1.531h75.443a7.13,7.13,0,0,1,5.331,2.483,8.851,8.851,0,0,1,2.153,5.969l-.694,52.888a7.976,7.976,0,0,1-7.489,8.21Z" transform="translate(734.094 348.883)" fill="#6c63ff"/></g></svg>